<svg width="298" height="104" viewBox="0 0 298 104" fill="none" xmlns="http://www.w3.org/2000/svg">
<path d="M52.4805 19.5831C52.1175 19.756 50.7325 20.2497 49.9117 20.5814C49.7956 20.6281 49.6904 20.6716 49.6002 20.7104C49.6693 20.6477 49.7654 20.5797 49.8819 20.5085C50.9546 19.8388 53.8298 18.9377 52.4805 19.5831ZM24.1754 76.1289C24.0995 76.1679 24.0407 76.2254 23.9816 76.2874C23.9431 76.2751 23.9423 76.2869 24.0358 76.3802C24.1251 76.4701 24.3179 76.6323 24.5295 76.8165C24.599 76.8776 24.2662 76.9474 24.4464 77.0771C24.6442 77.212 24.7653 76.9072 25.1204 77.0625C25.3701 77.2376 27.9955 78.4862 29.2957 78.7388C33.7373 79.7992 39.3876 79.9785 45.133 80.1546C39.2103 80.2957 45.1434 80.6724 46.8628 80.5432C47.2666 80.5085 47.069 79.9435 53.4111 79.9699C55.8946 79.9797 55.5608 80.328 56.3621 80.4821C56.7355 80.5759 57.4517 80.6484 58.9721 80.2443C55.9678 79.9224 58.6079 79.9441 61.3827 79.0888C61.7632 79.039 66.2182 77.5511 68.3816 76.5377C69.1166 76.212 70.0782 75.4373 71.053 74.9827C71.7199 74.6719 72.3161 74.5897 73.3031 74.1158C77.6636 72.0184 82.0172 69.7995 86.5021 67.535C86.8203 67.3743 87.1426 67.2115 87.4688 67.0466C85.0836 69.2085 89.8202 66.2202 90.0584 66.1336C91.2982 65.7387 86.1873 68.4766 88.2861 67.5401C91.114 66.0395 93.9461 64.5103 96.7824 62.9647C94.4118 64.1185 99.536 60.7075 100.681 60.391C99.8818 60.0134 113.953 53.9014 115.877 52.554C116.278 52.2747 113.322 53.4933 119.861 50.083C120.57 49.7138 120.41 50.0516 120.767 49.8319C120.979 49.7011 121.976 48.3574 123.577 47.9132C124.163 47.7494 121.07 49.9802 128.254 45.803C125.016 46.7851 138.151 39.8915 140.632 38.7205C140.105 38.9032 139.586 39.0817 139.062 39.263C141.546 38.1817 141.863 37.7318 142.399 37.4502C144.573 36.3073 147.641 34.8887 149.635 33.763C151.962 32.4498 151.768 32.0539 154.58 30.7008C153.874 30.9786 153.194 31.2424 152.494 31.5169C154.386 30.5013 156.286 29.4823 158.203 28.457C154.085 31.3837 159.17 27.9575 159.503 27.7616C160.059 27.433 159.362 28.0868 160.292 27.5437C160.385 27.4872 160.144 27.3624 161.568 26.5548C164.584 24.8478 164.219 25.3708 165.504 24.6674C165.621 24.6022 165.111 24.6478 167.291 23.4107C174.243 19.4821 167.334 23.5605 167.071 23.7382C166.74 23.9618 169.534 23.4001 163.464 26.3644C165.476 25.3755 165.887 25.5793 166.109 25.4693C166.304 25.3702 169.74 23.4487 169.925 23.3359C171.584 22.2971 169.951 22.8866 170.264 22.6658C170.354 22.6024 170.958 22.3144 171.709 21.9276C173.137 21.19 175.096 20.1054 175.492 19.3327C177.735 18.9091 174.932 20.3564 171.818 22.131C171.654 22.2243 171.489 22.319 171.322 22.4149C171.194 22.5348 171.459 22.4427 171.886 22.2585C172.897 21.8174 174.71 20.9267 174.861 20.8465C179.652 18.3049 176.726 19.1968 177.594 18.3155C178.065 17.8463 180.215 17.1715 178.156 17.6586C182.522 15.3168 180 16.9765 180.302 16.8684C180.76 16.7036 182.234 15.7738 182.439 15.6918C182.735 15.5732 181.837 16.2382 182.978 15.7243C183.154 15.6444 184.843 14.4304 182.439 15.4932C185.575 13.9389 185.224 13.8291 186.513 13.7805C188.255 11.7811 188.373 13.5275 189.26 13.1548C191.638 12.1656 190.617 11.7816 190.724 11.6852C191.419 11.0417 198.196 8.24983 200.007 7.4689C199.484 8.26106 194.503 9.79791 193.548 10.3871C190.286 12.2867 198.542 8.44495 196.321 10.24C197.315 9.58475 198.309 8.94451 199.344 8.30868C201.604 7.92823 198.625 9.20819 204.306 6.97153C205.11 6.24356 200.266 8.50474 201.169 7.84626C201.656 7.437 205.028 6.20697 205.079 6.10843C205.102 5.96055 202.078 7.1665 202.503 6.83183C203.346 5.90602 215.058 3.09444 206.331 5.74929C208.59 5.05917 210.019 5.38809 211.734 4.89087C211.877 4.84976 212.023 4.80292 212.172 4.74936C212.554 4.6129 212.124 4.57432 211.648 4.52557C210.982 4.45896 210.218 4.37224 211.507 3.92279C212.313 3.64693 213.925 3.22018 216.891 2.7062C217.19 3.00311 212.533 3.70006 212.421 3.77517C212.264 3.85192 213.272 4.47101 213.424 4.48005C213.939 4.38811 225.018 2.00333 227.432 2.27934C226.448 1.85319 235.854 1.4033 236.857 1.28359C237.126 1.2294 236.097 0.990456 236.385 0.944448C238.193 0.645353 243.098 1.02706 245.343 1.0572C247.864 1.07721 247.543 0.834163 247.686 0.833431C248.794 0.862094 247.907 1.02096 248.581 1.03067C249.215 1.03693 252.132 1.11672 254.33 1.22164C256.238 1.30469 257.763 1.54915 257.948 1.56161C258.094 1.57454 256.551 1.04118 258.675 1.32149C259.005 1.46491 258.885 1.35027 264.779 3.15545C268.219 4.42647 267.088 3.86767 265.445 3.06072C263.796 2.26548 261.466 1.47865 263.043 1.74728C267.493 3.76177 267.387 3.42085 268.564 3.9682C268.966 4.16991 271.698 6.01004 274.399 7.93339C272.411 6.60352 270.261 5.3866 267.946 4.36534C270.212 5.44817 274.164 7.88821 275.571 9.14324C276.272 9.74532 275.479 9.54327 277.005 10.7871C277.29 11.0689 279.263 11.4121 274.844 8.48106C274.689 7.97691 276.599 9.65396 277.513 10.3368C277.65 10.4375 278.527 10.4907 279.384 11.7073C279.49 12.0438 276.122 10.4059 283.335 16.4489C283.561 16.6498 283.007 15.747 283.231 15.9397C283.396 16.0687 284.88 17.9093 285.054 18.0959C285.246 18.2824 284.677 17.2779 284.91 17.4953C286.116 18.6192 286.781 20.7668 284.754 18.1539C285.224 18.8401 285.679 19.5292 286.118 20.2212C286.287 20.4814 286.452 20.7421 286.614 21.0031C286.327 19.5977 287.906 22.4169 288.8 23.8652C291.666 28.5055 291.917 29.4345 292.001 29.1339C292.04 28.8687 291.581 27.5537 292.084 28.3737C293.618 31.0496 291.834 29.2938 293.662 33.3769C293.713 33.7671 292.865 28.4847 295.337 38.5889C294.996 37.1204 294.587 35.6415 294.101 34.1673C293.868 35.1914 295.563 39.4823 295.592 39.8288C296.33 43.6728 295.816 41.1622 296.709 46.685C296.78 47.1738 296.716 48.2439 296.844 49.256C297.391 53.4794 296.671 43.6187 296.7 43.1767C296.997 43.1647 297.634 53.8573 297.459 54.0328C297.253 55.5184 297.23 49.4377 296.948 50.5989C296.921 50.8716 297.088 56.2286 297.088 60.4978C297.178 65.8746 295.182 70.6263 294.362 72.1343C291.889 76.6553 289.822 77.388 290.545 78.0398C289.063 78.4746 288.81 79.6378 288.429 80.0358C283.827 84.5089 283.777 84.2739 279.903 87.2162C279.046 87.8315 278.169 88.084 277.893 88.3179C277.731 88.4548 278.219 88.4841 277.397 89.116C276.22 90.1013 268.99 93.8462 268.445 93.9155C267.85 94.0626 271.344 92.2549 270.601 92.3615C268.615 93.4393 266.749 94.4696 264.877 95.4627C263.974 95.9409 263.049 96.3557 262.109 96.7088C260.297 97.3525 261.164 96.8414 260.389 97.0921C260.01 97.3785 254.084 98.5675 254.384 98.4858C254.638 98.559 260.365 98.0906 264.949 95.5997C267.022 94.5443 268.606 93.7556 267.361 94.5869C266.827 94.944 264.694 95.5964 265.243 95.8845C265.205 95.9039 265.168 95.9232 265.131 95.9425C246.516 103.353 235.446 96.1547 224.559 92.4635C230.928 94.6143 238.084 97.5587 246.381 98.4714C247.472 98.6416 251.563 98.8131 251.08 98.5198C243.427 98.4501 235.803 96.3404 230.329 94.2447C230.156 94.1777 230.875 94.1851 230.232 93.9192C229.002 93.4328 224.957 92.2563 224.356 91.8872C224.255 91.8259 226.569 92.4268 225.971 91.9765C224.447 90.8263 223.598 91.6677 222.137 91.0293C221.413 90.7178 218.119 89.0175 215.428 87.6372C213.919 86.8708 212.587 86.205 211.908 85.9925C210.512 85.5484 213.357 87.0328 215.247 88.0137C216.134 88.4783 216.763 88.8265 216.547 88.8309C216.079 88.6401 215.61 88.4412 215.14 88.2352C210.451 86.1643 206.278 83.5947 202.284 81.4261C202.206 81.3838 202.768 81.9594 201.77 81.4426C200.05 80.5516 199.769 80.0166 198.972 79.5098C198.117 78.9682 194.981 77.2488 194.633 76.9133C194.588 76.8699 195.375 76.9425 195.474 76.988C196.893 77.638 197.162 78.2729 197.284 78.348C197.742 78.625 198.278 78.7411 198.694 78.9863C199.385 79.3926 199.698 79.7401 200.615 80.2674C201.253 80.6342 200.774 80.0386 201.385 80.3941C201.603 80.5245 203.738 82.4535 204.3 81.9971C204.355 81.8695 184.845 70.4624 182.875 69.5534C184.499 70.5616 186.129 71.5777 187.759 72.5964C184.461 70.4943 180.145 68.6815 180.243 67.8333C174.738 64.7198 169.237 61.679 163.746 58.8659C156.698 55.2578 149.571 51.8877 142.338 48.8099C140.048 47.785 141.516 47.8273 137.627 46.4175C138.558 46.9639 139.489 47.5162 140.411 48.0712C138.514 47.122 129.842 43.5481 128.359 43.1631C128.17 43.111 127.758 43.4428 125.536 42.6997C123.56 42.044 123.355 41.614 122.319 41.1904C121.45 40.8374 120.422 40.5897 120.163 40.4836C119.967 40.4026 119.951 40.1796 119.489 39.9852C119.485 39.9832 119.48 39.9812 119.475 39.9792C117.964 39.3633 119.036 40.3377 117.711 39.1907C118.093 39.2869 118.475 39.3843 118.855 39.4815C117.024 38.7766 114.565 37.6743 117.363 38.4079C117.843 38.5348 117.375 38.598 117.727 38.7114C118.453 38.944 119.105 39.1545 119.7 39.3469C127.733 42.0014 124.075 40.535 119.771 39.1308C118.352 38.6723 116.864 38.2294 115.705 37.9409C114.557 37.2358 107.505 35.3252 107.29 35.2248C106.989 35.0502 108.256 35.1579 106.738 34.5122C106.422 34.3295 96.9916 32.073 100.468 32.5509C101.188 32.6345 105.674 33.9177 106.76 34.2235C104.374 32.8631 98.1436 32.233 97.4813 32.0729C94.786 31.3291 102.84 32.7847 96.7231 31.2495C92.0204 30.1308 96.3552 31.5403 94.503 31.3146C93.4688 31.1652 88.2495 29.6777 88.2925 30.3269C86.4757 30.0802 87.5866 29.9448 87.3673 29.8832C87.3397 29.8759 87.2562 29.8627 87.1301 29.8449C86.2687 29.7132 83.4405 29.4283 82.4575 29.2084C82.3199 29.1757 82.7964 28.9143 82.6557 28.8712C82.3803 28.7775 78.95 28.4945 78.8098 28.5246C78.7219 28.5354 79.5125 28.8813 79.1723 28.9196C78.7801 28.9489 75.4878 28.6693 75.2966 28.7522C75.0406 28.8427 79.1075 29.0303 78.4054 29.3003C76.5514 29.064 73.4737 29.1451 72.2017 29.3737C72.5158 29.3065 74.3542 29.3532 74.9824 29.4112C74.6748 29.8358 70.7254 29.7283 72.0852 29.4031C71.2148 29.5782 71.8044 29.6926 71.3133 29.8657C71.1853 29.9085 69.9454 29.9018 69.7011 29.9794C69.6717 29.9939 70.9521 30.1803 70.6937 30.2697C70.2484 30.4223 66.4063 30.3734 66.0626 30.3328C65.1612 30.2085 68.3534 30.0595 68.6019 29.8716C68.6483 29.8404 65.9502 29.4617 65.8998 29.4294C65.7495 29.0727 68.7549 29.3328 68.4077 29.0132C67.6722 28.9427 66.9287 28.8745 66.1773 28.8068C69.1089 28.4625 74.1755 28.7235 75.4713 28.446C71.4714 28.3532 67.0342 28.3866 67.033 27.5468C67.039 27.1961 68.8708 26.9958 68.7987 26.9076C68.5373 26.5859 65.9784 26.9292 65.8784 26.9131C65.7999 26.8937 65.764 26.8748 65.764 26.8565C65.764 26.8564 65.764 26.8564 65.764 26.8564C65.7745 26.6685 69.413 26.5398 69.5832 26.461C69.8892 26.3115 68.2861 25.6793 68.2868 25.5427C68.3465 25.5124 70.917 25.3869 70.0525 25.1392C69.1819 24.8853 66.9076 24.8764 66.8253 24.8518C66.3958 24.7034 70.3651 24.5845 70.4761 24.5075C70.5419 24.4627 68.4195 24.1803 68.3553 24.1055C68.3031 24.0279 69.9228 23.8685 70.5604 23.6356C71.0374 23.4611 69.6564 23.3073 69.8995 23.2821C70.078 23.2556 73.8064 23.3337 73.9866 23.3206C74.261 23.2831 73.3962 23.0385 73.5249 22.9892C73.7073 22.9159 74.9071 23.0393 74.7538 22.9543C74.6488 22.8707 69.9751 22.0245 69.998 21.8409C70.0562 21.4947 75.0454 22.3652 70.4098 20.951C70.3778 20.9412 69.2392 21.026 69.2078 21.0182C68.5059 20.7691 72.1614 20.4114 67.6946 20.4551C76.0117 20.1006 68.7347 19.9467 69.968 19.3899C70.445 19.1676 73.6958 19.146 73.7138 19.122C73.406 18.8334 72.3623 19.0217 72.0133 18.8794C71.8185 18.7933 74.7464 18.5845 74.0971 18.3759C73.7578 18.2572 70.6532 18.2274 70.528 18.2132C69.306 18.0193 70.8093 17.8408 70.5422 17.7098C70.3633 17.6196 68.4965 17.5998 68.4494 17.5855C68.3685 17.5508 70.9073 17.2212 71.4458 17.1123C71.8521 17.0243 70.3355 16.8545 70.6183 16.818C72.3201 16.5853 75.9586 17.3312 72.4657 16.354C72.252 16.294 70.925 16.2929 70.8876 16.2828C70.0718 16.0223 72.5119 16.037 72.9608 15.8502C73.7253 15.5168 70.1837 15.6315 73.1314 15.4532C70.9287 15.1686 69.6966 15.1703 67.1732 15.2295C74.2015 15.0845 76.8385 14.2784 68.88 14.1724C71.383 14.2038 71.1228 13.6975 71.8786 13.6998C72.3455 13.6918 76.0546 14.3303 74.3863 13.129C74.1714 12.9741 71.9036 13.098 72.6192 12.8241C78.0778 13.0718 72.7349 12.6312 72.7342 12.6024C72.7654 11.7663 86.3539 13.2992 88.5989 13.801C88.9976 13.8499 89.3799 13.8884 89.7638 13.9222C91.9382 14.1104 93.774 14.0801 94.2533 14.1731C96.1167 14.544 94.5183 14.4994 94.9149 14.6795C95.3239 14.8409 100.671 15.4871 100.919 15.5924C101.898 15.94 100.804 16.0095 100.905 16.05C102.121 16.507 109.072 18.0368 110.952 18.6698C110.954 18.4496 107.102 17.3809 109.599 17.7179C112.5 18.1179 112.406 19.0524 112.469 19.1092C116.719 20.3238 120.921 21.6273 125.095 23.0018C133.426 25.7402 141.716 28.815 149.831 32.2378C149.878 31.7005 141.719 28.7871 141.55 28.6837C140.631 27.8484 154.176 33.3998 155.702 34.364C154.498 33.714 153.299 33.0756 152.084 32.439C154.45 32.8398 158.861 35.5975 161.998 36.8051C163.019 37.1953 161.215 36.1129 161.262 36.1201C162.463 36.4383 164.158 37.4258 162.713 37.0651C165.524 38.0873 164.998 38.1801 167.041 39.1956C167.145 39.2477 166.366 38.6164 168.026 39.3239C168.629 39.5796 171.145 40.8167 172.567 41.4375C172.997 41.6242 173.327 41.7534 173.474 41.7769C173.604 41.7969 173.257 41.3525 172.803 40.9715C172.344 40.5874 171.781 40.2691 171.486 40.5425C167.257 38.027 169.93 40.1489 168.227 39.2881C167.965 39.1608 168.762 39.0586 164.342 37.1592C165.5 36.8609 170.233 39.801 171.119 40.1537C172.961 40.8536 165.895 36.9171 164.289 36.8335C165.17 36.5999 163.805 36.5107 162.183 35.726C160.41 34.8717 161.257 35.0722 160.288 34.6241C157.63 33.4046 158.562 34.2856 156.518 32.9585C158.189 34.9725 152.687 31.4226 151.051 30.4189C153.91 31.5659 156.747 32.7505 159.571 33.9748C159.435 33.846 159.3 33.7173 159.165 33.589C159.904 33.9344 160.628 34.2762 161.365 34.6268C161.222 34.625 161.079 34.6234 160.936 34.622C164.886 36.0343 165.606 36.876 165.914 37.0248C168.16 38.1352 170.599 39.3498 173.005 40.5725C174.813 41.4913 176.595 42.4168 178.263 43.299C178.841 43.6097 178.641 43.0514 182.722 45.5949C184.02 46.4087 182.614 45.9794 184.152 46.7685C186.437 47.1035 186.087 47.6467 186.65 47.9577C188.26 48.8481 189.335 49.2218 189.484 49.3025C191.48 50.3802 194.346 52.0349 196.51 53.2285C196.552 53.2488 195.553 52.3987 196.915 53.255C197.393 53.5542 201.261 56.9708 205.235 58.8293C204.278 58.2053 203.326 57.5822 202.366 56.9551C203.491 57.7176 211.754 62.0717 209.904 60.703C208.777 59.8749 205.457 58.7779 205.456 58.0249C208.105 59.8201 223.049 67.6739 224.012 68.1406C224.16 68.2378 223.105 67.9555 223.31 68.0862C223.366 68.1225 223.91 68.3897 224.539 68.6902C225.613 69.2059 226.997 69.8483 227.252 70.0194C227.501 70.1883 225.949 69.6128 226.036 69.7361C226.124 69.8553 230.322 71.8454 230.662 71.6815C229.589 71.3482 226.699 69.9337 228.326 70.4244C228.535 70.4889 229.48 71.0969 229.737 71.1692C231.959 71.8121 226.104 69.2897 224.613 68.5366C224.535 68.4995 224.469 68.4679 224.418 68.4431C224.485 68.4693 224.552 68.4958 224.62 68.5224C228.905 70.2635 235.08 73.3463 239.774 74.5821C241.601 75.4035 236.846 73.977 238.943 74.8609C243.302 76.6239 240.224 74.9471 240.373 74.9671C241.542 75.1334 244.927 77.2104 245.118 76.2888C246.6 76.7258 246.132 76.7826 248.188 76.9551C247.935 76.8596 247.669 76.7588 247.413 76.6559C249.898 76.6206 253.515 77.6435 253.22 77.7153C252.659 78.1269 250.459 77.7354 250.251 77.7084C249.957 77.6779 249.137 78.7274 245.581 77.2217C244.757 77.3674 246.224 77.7926 247.411 78.041C248.592 78.2893 249.539 78.4303 247.911 78.4595C249.636 78.7775 254.685 78.8455 255.644 78.0001C256.873 77.3524 257.779 76.8424 258.111 76.5866C258.262 76.4632 257.188 76.3482 259.781 75.2988C261.008 74.8003 258.222 76.3252 258.816 76.1611C259.691 75.8909 265.981 72.7764 270.754 69.0083C273.145 67.1345 274.933 65.101 275.687 63.6646C276.465 62.2239 276.49 61.348 276.526 60.8465C276.531 60.7211 276.721 60.7758 276.723 60.6455C276.723 60.6103 276.721 60.5666 276.717 60.5152C276.67 59.2075 276.445 56.1442 276.501 54.6446C276.183 58.0997 276.099 51.3859 275.99 49.8916C275.883 47.5157 276.205 47.6545 276.168 46.6507C276.068 42.6828 273.7 37.9875 272.997 35.4274C272.604 35.743 271.938 33.8167 270.859 31.9926C270.257 30.9852 269.62 30.0281 269.088 29.4184C267.833 27.9531 265.594 26.4796 267.118 28.4312C264.952 26.1135 262.388 24.267 260.175 23.1369C259.808 22.9504 260.413 23.0184 259.78 22.7128C259.721 22.6889 259.546 22.8331 259.008 22.6087C256.792 21.7453 256.276 21.6933 256.181 21.5289C256.088 21.3959 256.455 21.3313 256.056 21.1672C255.607 20.9868 255.266 20.8913 255.014 20.8396C257.625 21.1207 260.713 22.6735 261.524 23.2091C261.307 22.7929 259.809 21.9171 258.206 21.3964C256.601 20.8462 254.927 20.6886 254.174 20.5654C254.121 20.5557 254.331 20.3126 254.278 20.3056C254.277 20.3055 254.275 20.3053 254.274 20.3052C254.142 20.2877 253.852 20.2621 253.484 20.2545C251.627 20.1936 248.524 20.2377 249.397 20.4999C249.64 20.5723 251.285 20.6202 253.464 20.706C253.834 20.7195 254.223 20.7465 254.625 20.7914C254.091 20.7878 254.453 21.1255 254.359 21.1271C254.116 21.132 253.804 21.1153 253.447 21.0974C251.421 20.9941 248.555 20.7438 247.374 20.705C247.028 20.6927 247.053 20.8813 246.997 20.8812C245.629 20.8295 246.191 20.2936 244.788 20.8501C242.308 20.1795 249.431 20.7636 248.942 20.3497C248.53 19.8169 232.727 20.4948 232.87 21.2178C232.812 21.1663 232.591 21.1149 232.144 21.0762C231.15 20.9701 226.837 21.5351 226.115 21.7557C225.993 21.7923 226.115 22.2918 225.962 22.3185C225.576 22.3604 220.307 22.8206 218.459 23.5591C219.508 23.4099 220.559 23.276 221.612 23.1566C215.351 24.3846 216.381 24.4185 218.472 24.093C218.576 24.0723 218.68 24.0701 218.779 24.0514C220.406 23.8199 222.501 23.5594 222.538 23.5958C222.622 23.667 218.992 24.3856 216.43 24.9449C214.656 25.318 213.507 25.5496 214.206 25.1533C214.321 25.0887 215.423 24.8344 216.355 24.624C217.37 24.3931 218.081 24.2095 216.79 24.3197C216.709 24.3269 216.535 24.3609 216.305 24.4126C215.289 24.6312 213.395 25.2009 213.269 25.2131C212.636 25.2395 214.546 24.4943 216.19 23.9205C217.276 23.533 218.138 23.2115 217.773 23.1462C217.272 23.3621 216.724 23.5416 216.14 23.7076C214.858 24.0716 213.533 24.3482 212.36 24.7663C211.582 25.0441 211.473 25.355 211.376 25.3904C209.957 25.9345 210.682 25.4099 210.199 25.5825C209.948 25.6547 207.25 27.306 207.511 26.3634C197.898 31.1824 205.186 27.7189 210.895 25.6851C209.203 26.5285 205.484 27.9089 203.831 28.7403C203.232 29.0366 203.705 29.1099 202.707 29.6234C200.676 30.5969 190.361 35.4597 187.65 36.8474C189.256 35.8999 188.648 35.8944 187.375 36.5849C186.143 37.2562 187.365 37.0453 187.142 37.2094C186.967 37.3355 183.602 39.012 181.48 40.1222C180.766 40.4945 180.182 40.8062 179.933 40.9549C180.552 40.5991 181.052 40.3051 181.449 40.0646C183.397 38.8907 183.063 38.8946 181.286 39.7609C180.777 40.0085 180.139 40.3338 179.382 40.7356C179.898 40.3635 180.406 39.9963 180.906 39.6343C178.738 40.9271 173.851 43.0871 172.646 43.8947C172.455 44.0231 173.294 43.8388 173.187 43.911C172.093 44.6227 168.158 46.4988 168.02 46.6688C167.905 46.8102 169.625 46.0966 169.071 46.5139C168.964 46.5964 167.211 47.1868 165.712 48.1025C165.151 48.4445 165.607 48.4535 165.468 48.5447C164.311 49.3064 164.831 48.5824 162.66 49.8485C161.052 50.7869 160.037 51.7745 157.74 52.9016C165.315 49.2659 159.044 52.4978 156.04 54.324C155.559 54.6161 156.187 54.7406 153.142 56.1949C159.045 52.0772 151.168 56.8351 149.516 57.7407C149.424 57.7885 149.262 57.5669 148.452 58.0104C148.383 58.0485 148.571 58.1548 147.826 58.5835C140.768 62.6409 145.222 59.9388 143.781 60.5287C143.168 60.7794 139.828 62.9244 138.897 63.4457C138.683 63.5649 138.689 63.3431 137.861 63.8089C136.398 64.633 135.178 65.5389 134.215 66.0889C134.102 66.1526 133.955 65.8893 132.158 66.9916C131.653 67.3013 131.124 67.7154 131.901 67.3861C134.479 66.2917 138.862 63.3059 141.75 62.0339C144.386 60.8729 136.483 65.2706 136.072 65.4979C135.922 65.5821 137.395 64.5974 135.81 65.4388C134.455 66.1588 132.251 67.9698 130.197 68.9713C130.038 69.0489 128.224 69.5429 128.286 69.4793C128.342 69.4273 130.759 67.987 130.338 68.0728C130.292 68.0818 128.725 68.9478 128.477 68.9756C128.171 69.0115 126.951 68.3845 126.605 68.5419C125.713 68.9519 126.396 68.8724 125.832 69.1617C124.625 69.7824 120.347 71.7425 120.396 72.1643C121.097 71.8076 121.778 71.4614 122.473 71.1075C118.705 73.2162 120.395 72.4819 119.894 72.8401C119.353 73.2267 119.351 72.8336 118.059 73.5012C117.769 73.6538 112.448 76.6277 112.614 76.7008C115.464 74.8928 114.574 75.8613 114.713 75.795C115.249 75.5358 115.801 74.9624 116.495 74.5899C121.42 71.9481 116.652 74.9796 117.857 74.4335C118.275 74.2432 118.967 73.6317 119.14 73.5495C119.703 73.2808 119.841 73.5113 120.196 73.2923C121.028 72.7805 119.847 72.993 119.905 72.9384C120.561 72.3095 123.68 70.9391 122.024 72.3172C123.209 71.8382 123.099 71.3252 124.084 71.014C126.03 70.4002 123.348 71.7553 122.664 72.2049C120.22 73.8139 119.36 74.0664 115.76 76.0994C114.45 76.8383 113.028 77.8861 112.415 78.2324C112.04 78.4466 107.999 79.6589 108.532 80.8796C107.043 81.5337 104.407 81.9483 102.977 82.751C101.664 83.4879 102.31 83.6773 102.194 83.7595C102.018 83.8852 100.416 84.6879 99.8971 85.0345C99.3005 85.4357 99.7004 85.4294 98.7359 86.0157C97.5988 86.703 96.9772 86.9604 96.5951 87.0587C96.1313 87.1815 96.0194 87.073 95.8705 87.1309C92.7306 88.3406 94.3221 88.288 93.6854 88.6761C93.1119 89.0496 84.1828 93.2145 82.2992 94.2428C83.0263 93.7959 83.7721 93.335 84.493 92.8818C83.0091 93.2644 81.7281 94.4004 81.4669 93.9293C81.5524 94.8517 78.3856 95.6596 77.499 96.0608C77.1428 96.2258 77.2287 96.3497 76.7875 96.5463C75.1062 97.3245 70.8779 98.8297 69.7942 99.2372C65.3122 101.135 77.1228 97.5263 77.7065 97.1021C76.3071 97.8815 65.8524 101.74 70.8528 100.453C71.6285 100.256 72.7801 99.4148 73.1809 99.2426C75.8209 98.1026 73.8451 99.2508 74.0629 99.2014C74.4587 99.1078 76.0405 98.0999 76.4997 97.9454C76.6447 97.8947 75.8426 98.59 78.2621 97.5526C77.2852 98.3846 69.9675 100.975 68.7504 101.31C68.2809 101.39 71.2956 101.546 63.397 102.676C63.5016 102.718 63.6069 102.76 63.7129 102.802C61.3979 103.261 58.841 103.497 56.6428 103.527C55.1885 103.557 53.6317 103.606 52.0366 103.648C52.3832 103.502 54.2363 103.185 51.9076 103.29C50.5433 103.349 51.5596 103.641 51.4358 103.652C50.5143 103.985 27.5966 103.53 21.8574 101.063C20.1447 100.701 14.8754 98.8201 14.4072 98.4718C13.2136 97.877 10.331 96.2865 7.68553 93.7289C4.99044 91.235 3.0244 87.7342 2.50365 86.5763C1.82384 85.1315 2.19774 86.6329 1.64989 85.2966C1.17752 84.0351 1.9098 85.2481 1.77712 84.8715C1.47031 84.0062 0.5888 81.5524 0.293036 78.4348C-0.441359 73.2228 0.308657 64.1865 1.39289 61.3539C0.308262 63.8611 0.276555 75.1656 0.67496 74.8423C0.683803 74.795 0.846936 72.1326 0.787466 71.5719C1.00782 70.6779 0.553885 67.4407 0.974548 65.656C1.03695 65.4556 1.20635 66.307 1.87708 63.1425C2.11942 62.0633 2.50628 59.0488 4.04556 56.2007C4.70162 54.4263 7.14459 48.9873 12.2037 44.6815C16.7451 40.7515 22.0044 37.1597 22.4717 36.5685C22.4842 36.5282 20.2969 37.9035 21.629 36.7634C23.4179 35.2588 22.1109 37.039 24.3774 35.5831C24.6962 35.3175 30.9854 31.3214 31.1951 31.2044C32.9313 29.7043 27.2433 32.8717 27.3016 32.8206C27.4233 32.5712 32.0544 29.7357 32.269 29.6767C32.4684 29.596 28.9013 32.2541 33.4085 29.4593C32.8482 29.6962 32.2832 29.9401 31.7282 30.183C33.8347 28.8391 34.2287 29.0727 34.7682 28.8018C36.4446 27.9787 37.9815 26.5216 40.9677 25.858C41.7543 25.6862 40.6756 26.4394 40.7777 26.422C41.7269 26.2402 42.524 25.1093 44.0252 24.9737C44.1362 24.9725 41.2813 26.5844 46.4961 24.2343C46.1147 24.3497 45.7427 24.4623 45.3589 24.5819C45.8484 24.2711 48.7026 22.958 50.5683 22.1875C51.2906 21.8855 51.8615 21.6562 52.0651 21.5822C54.1622 20.8269 52.4842 21.8637 54.5519 21.0071C53.0292 21.0745 59.3953 18.5847 59.177 19.1236C59.8894 18.2985 65.5399 16.7404 68.218 15.9536C69.8881 15.4308 73.3261 14.2364 73.8968 14.125C74.5827 13.9797 74.4579 14.3701 75.7038 14.139C76.011 14.0847 78.7392 13.1991 81.7738 12.8515C82.1971 12.8054 82.6176 12.7696 83.0275 12.7475C83.629 12.7131 84.958 13.0885 83.8964 13.4221C83.3463 13.5937 82.6705 13.7228 81.9487 13.8378C80.0751 14.136 78.1834 14.3984 78.2694 14.6319C78.355 14.8434 80.1779 14.4414 81.996 14.1045C83.1048 13.8958 84.1724 13.6869 84.6831 13.6197C90.6291 12.8534 87.2868 13.8211 87.4521 13.9133C87.8996 14.1337 91.1307 13.6124 91.266 13.6222C91.8424 13.6515 89.5834 14.2371 89.5833 14.4207C89.5675 14.6562 92.7607 14.5914 92.0603 14.7793C91.0602 15.04 88.1555 15.1486 87.9746 15.1977C85.6674 15.8078 88.9654 15.8087 89.9 15.9324C90.1826 15.97 89.1288 16.2736 89.3558 16.2617C92.825 16.0826 89.9497 15.3966 92.241 15.1208C94.284 14.8828 91.7228 15.624 91.8028 15.6333C91.9052 15.6371 94.3402 15.2952 94.7332 15.369C94.9187 15.3905 88.743 17.0323 89.0581 17.3081C91.0334 16.92 93.0405 16.5436 95.0355 16.1922C95.2529 16.5655 92.3168 16.6945 92.0309 16.784C91.4452 16.9574 93.1379 16.907 93.0926 17.0437C93.0577 17.13 91.1587 17.7104 92.9341 17.5627C93.5565 17.5122 94.7926 17.0375 97.0514 17.0249C89.3872 18.4817 94.7591 17.9477 95.0102 18.0531C95.2578 18.1617 91.6242 19.0229 96.0777 18.3266C96.3772 19.0781 96.0157 18.5834 94.7713 18.9013C93.2402 19.3005 96.8608 19.0106 91.1808 19.676C91.5499 19.9815 96.0911 19.2836 96.3344 19.2893C96.5449 19.2867 95.5662 19.6057 95.9331 19.6163C100.287 19.7418 97.3137 19.8176 98.6076 20.1032C98.7176 20.1224 102.761 19.8081 99.7114 20.2408C94.1641 21.0652 91.7733 20.9615 91.014 22.1985C95.1746 22.0169 100.04 20.6653 101.295 20.5209C103.207 20.2889 101.248 20.736 101.493 20.7731C101.569 20.7829 103.226 20.5854 103.243 20.6041C104.5 21.2918 95.9308 21.4581 93.2772 22.0586C94.009 22.0767 94.743 22.0971 95.4763 22.1206C94.4974 22.2659 93.5481 22.4123 92.5687 22.5677C97.2258 22.1292 92.7475 22.6311 91.7048 23.4954C91.4784 23.6868 94.4459 22.9563 91.0744 23.9177C93.6304 23.618 92.8317 23.8822 95.1106 23.3497C95.0904 23.6217 89.9722 24.7169 87.9544 25.2115C95.1957 24.3521 90.9438 23.9859 97.2449 23.6155C98.3587 23.1175 95.3799 23.5967 95.6245 23.5083C96.4691 23.1833 98.5452 23.2113 100.923 22.2156C101.311 22.054 99.569 21.8921 102.086 21.6218C102.369 21.5905 104.003 21.731 103.979 21.7577C103.789 22.0148 102.205 22.0907 102.145 22.2002C102.101 22.2981 103.847 22.0573 103.862 22.085C103.945 22.377 102.399 22.3507 102.634 22.4216C103.145 22.5691 109.491 22.5838 101.254 23.243C108.05 22.1873 102.105 22.7757 99.438 23.2615C98.7573 23.3814 98.6115 23.5807 97.6479 23.7732C96.4119 24.021 94.9278 24.1498 94.2922 24.2781C93.6028 24.4207 97.6179 24.2385 91.8811 24.9846C94.8559 24.9354 99.9248 23.7737 102.79 23.7784C108.544 23.7938 98.895 24.911 97.8842 25.1702C97.6178 25.2218 98.5508 25.3413 98.3744 25.38C98.0841 25.4263 92.5476 26.1196 92.0301 26.4178C91.5176 26.6997 94.0627 26.093 94.2534 26.2787C94.3933 26.3857 87.7768 27.6958 91.3949 27.2135C93.8843 26.8722 98.3813 25.6684 99.2173 26.1835C95.5989 26.7041 91.9491 27.3194 88.3111 27.9817C90.3393 27.8752 92.3898 27.7808 94.4028 27.7129C90.9763 28.291 87.8864 28.6304 84.6974 29.3393C84.1623 29.461 83.6167 29.6033 83.066 29.7685C83.7481 29.6882 84.3034 29.6381 84.745 29.6079C87.482 29.3976 86.5686 29.6717 84.8207 30.0347C83.0755 30.3909 80.3362 31.0289 80.2836 31.0919C80.266 31.1361 83.7702 30.9665 84.3039 31.0009C81.4525 31.653 72.2969 34.4493 77.8512 33.6382C76.8412 33.7339 74.6074 34.8322 74.6491 34.8563C75.0493 35.0475 80.0698 33.4337 79.3141 33.96C78.4515 34.5406 76.9866 34.4584 75.5126 34.9372C67.9368 37.5271 70.5851 38.4494 62.9009 41.0309C63.0739 41.0293 63.2474 41.0279 63.4197 41.027C61.9339 41.5796 60.4478 42.1509 58.9693 42.7365C52.3755 45.3465 46.0312 48.3963 40.092 51.955C37.4816 54.0727 30.644 59.3218 27.5377 62.0967C27.5177 62.1137 27.4951 62.1326 27.4701 62.1532C27.3263 62.2593 26.9623 62.5028 26.6156 62.824C26.2687 63.1363 25.9406 63.5331 25.8833 63.5856C25.6518 63.7558 26.4463 62.5042 25.9294 62.9551C25.8762 62.999 25.3504 63.6942 24.9522 64.6482C24.5476 65.5794 24.3047 66.6985 24.4911 66.5666C24.6494 66.0368 25.0474 64.5737 25.2162 64.4234C25.6531 64.0081 25.0489 65.0208 24.5071 67.3748C23.9377 69.6911 23.76 73.4903 24.0493 76.2262C24.0965 76.5427 24.0632 76.2897 24.0988 76.2848C24.1981 76.2707 24.301 76.2707 24.3999 76.2674C24.3368 76.2018 24.1798 76.0518 24.1754 76.1289ZM46.621 22.9083C47.2483 22.3803 48.8652 21.785 50.1868 21.2544C50.5293 21.1165 50.852 20.9813 51.1288 20.8506C52.9247 19.9929 55.7016 17.717 54.7408 19.302C53.215 19.945 51.6997 20.602 50.194 21.272C48.9908 21.8062 47.803 22.3502 46.621 22.9083ZM7.76775 48.1368C9.86137 45.8775 8.71956 48.0672 7.12896 49.894C6.9789 50.0995 5.16033 51.3335 7.76775 48.1368ZM26.2443 33.5254C26.1764 33.5751 24.6711 34.5309 24.6186 34.5571C23.1413 35.212 27.6739 32.3418 26.2443 33.5254ZM58.9264 102.919C56.1154 103.071 58.1341 103.603 59.9584 103.207C60.0675 103.184 59.1126 102.909 58.9264 102.919ZM56.9415 102.985C56.843 102.962 56.7406 102.943 56.6355 102.927C55.0927 102.588 52.2664 103.595 54.7046 103.445C54.8899 103.433 56.1633 103.175 56.637 103.053C56.8409 103.017 56.9637 102.99 56.9415 102.985ZM14.5977 41.8725C14.5389 42.1703 12.825 43.4745 12.1016 44.0484C12.0002 43.8908 13.9117 42.4523 14.5977 41.8725ZM22.3791 100.949C22.4514 100.883 20.4061 100.322 18.1247 99.4469C15.8532 98.6108 13.3733 97.2993 12.99 97.1748C14.5916 98.3236 22.3154 101.235 22.3791 100.949ZM42.2384 103.204C42.0644 103.179 39.5297 103.133 39.5962 103.268C40.8366 103.506 43.0667 103.345 42.2384 103.204ZM80.5056 96.5312C80.6026 96.4434 78.6036 96.4182 82.7707 95.1189C83.3843 94.9255 81.415 96.0955 81.6344 96.0263C82.0871 95.8846 82.4491 95.7473 82.7248 95.624C80.9298 96.5468 78.9788 97.449 78.769 97.4819C77.7822 97.6457 80.4677 96.5704 80.5056 96.5312ZM96.862 87.7593C96.878 87.7424 96.9 87.7231 96.9275 87.7017C97.3749 87.3445 99.5067 86.3146 100 86.1175C100.095 86.0803 99.8785 86.6163 100.89 86.0538C101.703 85.6003 100.306 85.903 101.923 85.1209C103.55 84.3315 101.541 85.7007 101.693 85.6421C101.876 85.5759 104.31 84.0933 104.323 84.3377C104.344 84.5144 101.64 85.8189 100.976 86.2052C100.148 86.6905 101.299 86.3981 99.8642 87.0825C98.9649 87.5106 99.2267 86.8284 99.0279 86.9046C98.9193 86.9477 97.7023 87.6983 97.0703 87.978C96.6729 88.1554 96.4836 88.1662 96.8676 87.7581C96.8657 87.7585 96.8638 87.7589 96.862 87.7593ZM83.2011 95.377C83.0722 95.4557 82.9169 95.5382 82.7248 95.624C82.8838 95.5424 83.0427 95.4594 83.2011 95.377ZM41.4114 25.5256C40.3971 25.8456 43.1344 24.3214 44.2876 24.0214C44.3703 24.1493 41.5757 25.464 41.4114 25.5256ZM84.7095 94.225C87.4358 93.0422 85.5503 94.152 83.2011 95.377C83.9185 94.9381 83.812 94.6092 84.7095 94.225ZM0.787466 71.5719C0.747334 71.7231 0.689111 71.8184 0.596479 71.8286C0.706888 71.4299 0.763237 71.3961 0.787466 71.5719ZM1.16213 80.6022C1.97542 83.3828 1.27524 80.5457 1.05742 78.3637C0.966887 77.6171 0.877294 76.9677 0.809784 76.9851C0.772445 76.9956 0.799582 77.6861 0.855981 78.3825C0.94079 79.4481 1.1398 80.5196 1.16213 80.6022ZM62.6449 102.526C62.3485 102.522 66.6877 101.044 60.2722 102.596C63.8053 102.269 60.1009 102.828 60.1599 102.875C60.3537 103.179 66.2147 101.951 67.2632 101.637C68.1087 101.036 63.7005 102.519 62.6524 102.525C62.6499 102.525 62.6474 102.526 62.6449 102.526ZM125.735 72.4827C125.349 72.9504 123.704 73.7701 122.63 74.3426C123.019 73.8742 124.657 73.0591 125.735 72.4827ZM198.305 53.9616C205.699 57.9266 206.179 59.25 199.701 55.1515C199.572 55.0697 197.817 53.7906 198.305 53.9616ZM254.63 76.445C254.989 76.7126 254.41 77.0883 253.594 77.0831C253.418 77.0855 252.726 76.7949 253.412 76.5912C253.493 77.0828 254.588 76.9865 254.63 76.445ZM86.1036 93.2695C86.7674 92.6547 89.2044 91.6642 90.4494 91.0821C89.7885 91.6602 87.2687 92.7991 86.1036 93.2695ZM221.73 67.4728C222.452 67.8738 223.112 67.8139 222.996 67.7239C222.483 67.3229 220.979 66.8683 221.73 67.4728ZM78.2357 96.8812C78.0536 96.7973 81.2955 95.1705 81.6545 95.4269C80.985 95.7127 78.3477 96.947 78.2357 96.8812ZM123.647 73.4915C123.145 73.675 125.476 72.2329 126.232 71.9085C126.257 72.0877 123.976 73.3713 123.647 73.4915ZM233.823 72.8313C234.485 73.1309 236.154 73.7694 236.384 73.7008C236.672 73.6273 234.214 72.7633 233.823 72.8313ZM98.0377 13.4312C97.945 13.342 101.207 13.6047 102.564 14.0575C105.152 14.8993 98.1542 13.4723 98.0377 13.4312ZM214.548 63.8615C212.562 62.3951 214.791 63.9843 214.861 63.6259C213.432 62.834 209.858 60.8201 212.152 62.4877C212.605 62.8151 213.883 63.4728 214.548 63.8615ZM216.456 65.0318C216.737 65.0572 218.441 65.5686 217.102 64.879C216.482 64.5594 215.313 64.3731 216.456 65.0318ZM117.198 18.3071C119.334 19.2449 109.2 16.1106 108.895 16.0226C108.747 15.9533 108.65 15.8994 108.597 15.8618C108.193 15.8517 106.242 15.3577 106.072 15.062C106.658 15.2322 108.257 15.6323 108.436 15.7095C108.513 15.7421 108.57 15.7687 108.608 15.7904C109.365 15.7435 116.806 18.1026 117.198 18.3071ZM133.71 24.0765C131.077 23.6205 130.887 22.7492 131.11 22.7983C133.926 23.4492 131.97 23.3667 132.044 23.4203C132.217 23.5263 134.23 23.9619 133.703 24.0737C133.705 24.0746 133.708 24.0756 133.71 24.0765ZM120.595 19.4847C120.487 19.4596 118.378 18.7817 118.296 18.7456C116.637 17.9613 122.606 19.881 120.595 19.4847ZM108.736 80.8773C110.121 80.22 108.948 81.1727 107.972 81.5798C107.892 81.6115 107.496 81.4665 108.736 80.8773ZM217.541 65.5286C217.759 65.7053 222.544 68.3697 224.366 69.0489C224.892 69.2552 225.196 69.3296 225.135 69.1994C225.042 69.1626 224.798 69.0487 224.448 68.8792C222.357 67.9103 216.055 64.4045 217.541 65.5286ZM269.249 68.4175C268.206 69.188 269.115 68.0219 269.718 67.7321C269.946 67.6232 269.514 68.2205 269.249 68.4175ZM73.4754 98.4646C71.79 99.3473 71.9074 98.5103 73.5069 98.1656C73.57 98.1516 73.5407 98.4299 73.4754 98.4646ZM259.502 74.215C263.87 71.471 263.595 73.1834 257.269 76.1057C257.437 75.9514 257.602 75.7984 257.768 75.645C256.488 76.2917 255.622 76.7198 255.102 76.9747C254.816 77.0793 254.884 77.0346 255.079 76.9309C256.128 76.3702 258.129 75.3116 258.935 74.8316C259.572 74.4543 258.927 74.5629 259.496 74.2161C259.498 74.2158 259.5 74.2154 259.502 74.215ZM273.594 64.4103C274.825 63.5127 274.58 64.0526 273.688 65.1018C272.804 66.1547 270.866 67.6971 269.958 68.4531C271.521 66.7621 273.367 65.0554 270.427 67.1758C272.477 65.3814 272.787 64.9602 272.965 64.9246C273.109 64.8923 272.891 65.2797 272.964 65.2217C273.146 65.0779 273.488 64.486 273.594 64.4103ZM265.346 71.1213C265.138 71.2906 263.265 72.2124 262.607 72.6216C263.413 71.8223 266.77 70.0124 265.346 71.1213ZM150.915 30.5539C150.638 30.7015 150.114 30.6693 148.4 29.8603C148.991 29.9721 150.147 30.3412 150.915 30.5539ZM48.8604 23.3383C49.3766 23.1277 50.1046 22.8458 50.7336 22.5919C51.5924 22.2449 52.2357 21.9546 51.7429 21.9915C51.7078 21.9962 51.2221 22.1907 50.6673 22.4298C49.82 22.7931 48.8344 23.2563 48.8604 23.3383ZM239.918 75.5735C240.169 75.7547 245.847 77.2228 243.951 76.4681C243.417 76.3238 238.145 74.7555 239.918 75.5735ZM209.298 61.1817C209.801 61.4684 211.856 62.5626 211.924 62.5336C212.16 62.4394 209.613 61.1427 209.298 61.1817ZM55.1531 21.0682C55.3192 21.0216 59.0797 19.5596 58.6261 19.6085C57.7521 19.6848 54.564 21.1991 55.1531 21.0682ZM113.422 77.7033C113.703 77.541 114.201 77.5709 114.302 77.52C114.534 77.4007 119.702 74.4716 117.871 75.8545C117.581 76.0816 109.995 80.0449 108.991 80.5394C108.436 80.4274 111.827 78.9936 112.585 78.5398C112.72 78.4587 112.662 78.1454 113.42 77.7059C113.421 77.7051 113.421 77.7042 113.422 77.7033ZM141.665 27.0831C141.334 27.1808 134.568 24.8205 134.738 24.6043C137.052 25.4027 139.362 26.2288 141.665 27.0831ZM145.04 28.4528C146.398 29.1723 143.057 27.8916 142.094 27.446C142.139 27.2939 144.848 28.3467 145.04 28.4528ZM220.164 68.0691C220.777 68.3235 219.121 67.0861 219.556 67.2378C219.836 67.3398 221.103 68.1352 221.563 68.2489C221.703 68.2836 220.493 67.3109 220.106 67.1233C219.544 66.8512 219.968 67.3531 219.358 67.0362C217.342 65.9858 215.632 64.8575 213.728 63.8157C213.556 63.722 214.809 64.6113 213.34 63.8002C213.117 63.6773 211.88 62.6975 210.1 61.7452C205.806 60.2678 203.338 57.943 198.2 55.3584C198.349 55.5303 201.982 57.8322 202.19 57.9591C206.288 60.4452 213.683 64.6434 217.959 66.8959C219.058 67.4779 218.602 67.0424 219.076 67.2844C219.452 67.4755 218.87 67.5325 220.164 68.0691ZM48.2689 23.7805C48.7522 23.8047 49.7937 23.3406 50.8496 22.8756C51.3507 22.654 51.8544 22.4306 52.2846 22.2637C52.0285 22.2266 51.4516 22.4319 50.7823 22.711C49.948 23.0581 48.9951 23.5111 48.2689 23.7805ZM174.129 42.0212C174.757 42.3272 176.629 43.4096 176.828 43.4075C177.093 43.4026 174.362 41.8946 174.129 42.0212ZM142.739 61.7083C142.792 61.6689 144.226 60.8955 144.284 60.8746C145.68 60.3931 141.381 62.7118 142.739 61.7083ZM176.809 43.0149C177.871 42.3935 178.916 41.7164 179.389 41.7531C178.707 42.0762 176.753 43.2485 176.809 43.0149ZM223.049 23.4255C222.758 23.1233 226.185 22.7995 226.835 22.7555C226.611 22.9247 223.256 23.624 223.049 23.4255ZM150.757 31.6351C148.609 30.7067 148.872 31.3731 147.585 30.5903C147.377 30.4639 147.056 29.1764 149.283 30.533C149.682 30.7788 147.917 30.308 150.757 31.6351ZM256.249 76.6361C256.087 76.8241 255.727 77.0633 255.284 77.3179C255.104 77.4442 254.803 77.5431 254.531 77.6206C254.571 77.4909 254.974 77.3278 255.216 77.1898C255.631 76.9685 256.011 76.7679 256.249 76.6361ZM62.0843 18.7822C63.2294 18.6928 68.099 16.8601 66.8143 17.0622C66.6223 17.0834 62.764 18.5439 62.0843 18.7822ZM90.9629 89.7275C92.6859 88.5805 88.8523 90.4311 87.7283 91.2501C88.2901 90.9579 90.8627 89.7984 90.9629 89.7275ZM211.782 25.835C211.855 25.7927 213.585 25.2993 213.674 25.2956C215.158 25.122 210.261 26.528 211.782 25.835ZM165.429 48.7733C165.999 48.2261 170.535 45.9239 171.624 45.5629C170.808 46.3462 164.714 49.4562 165.429 48.7733ZM159.612 35.3865C158.09 34.7002 156.681 33.9977 155.31 33.2958C155.682 33.265 159.508 35.1906 159.612 35.3865ZM218.472 24.093C218.576 24.0723 218.68 24.0701 218.779 24.0514C218.675 24.0659 218.572 24.0791 218.472 24.093ZM192.443 52.5327C193.601 53.2638 193.508 52.8503 193.44 52.8005C192.595 52.2063 191.129 51.7048 192.443 52.5327ZM49.9682 23.5702C50.1637 23.5945 50.5453 23.477 51.0207 23.2942C51.9025 22.955 53.1075 22.3855 53.959 22.0983C53.6185 22.0502 52.1079 22.6433 50.9566 23.1372C50.5676 23.3034 50.2207 23.4571 49.9682 23.5702ZM275.499 62.3778C275.748 62.1281 275.787 62.6287 275.479 63.4125C275.194 64.1854 274.414 65.2488 274.015 65.5414C273.919 65.5077 274.526 64.6233 274.9 63.8443C275.296 63.0545 275.462 62.4142 275.499 62.3778ZM85.0053 92.1994C84.773 92.0691 82.1736 93.6045 82.7928 93.4253C83.2122 93.3037 85.1322 92.2933 85.0053 92.1994ZM272.22 67.1853C271.915 67.5656 270.87 68.1547 271.101 67.7854C271.399 67.3159 272.297 67.0893 272.22 67.1853ZM228.562 72.3127C228.803 72.469 232.186 73.6565 230.914 72.8713C230.026 72.3239 229.755 72.5534 229.531 72.4581C229.273 72.3632 224.156 69.609 228.562 72.3127ZM270.976 33.725C271.657 34.555 272.227 35.7011 272.722 36.6762C272.427 36.3214 271.116 34.1908 270.976 33.725ZM95.2232 87.0113C94.8933 87.0999 86.1537 91.4449 91.2252 89.2003C91.5526 89.0593 96.305 86.7642 95.2232 87.0113ZM150.757 31.6351C151.026 31.7522 151.339 31.8969 151.692 32.0716C151.337 31.9103 151.025 31.7612 150.757 31.6351ZM174.714 42.942C174.163 42.8381 176.545 44.1224 177.288 44.4202C177.599 44.3573 174.793 42.9533 174.714 42.942ZM272.962 36.6494C273.336 37.1774 273.718 38.2776 274.006 39.0236C273.836 38.9362 272.971 36.9534 272.962 36.6494ZM229.279 21.7474C230.894 21.6465 232.873 21.4302 232.89 21.2451C232.926 21.2709 233.007 21.2944 233.14 21.314C233.271 21.331 235.003 21.1074 235.761 21.124C240.26 20.9783 218.467 23.1533 231.026 21.2169C230.443 21.3895 229.857 21.5667 229.279 21.7474ZM159.202 51.7108C158.229 51.9915 155.964 53.5642 156.63 53.2971C157.097 53.1077 160.171 51.4337 159.202 51.7108ZM192.194 33.7497C191.926 33.8394 189.651 35.1926 189.641 35.3327C191.04 34.7421 193.435 33.323 192.194 33.7497ZM152.464 55.1347C151.91 55.4025 151.396 56.1 151.467 56.0787C152.081 55.89 153.465 54.8112 152.464 55.1347ZM154.807 34.4496C155.634 34.9241 158.467 35.9145 159.164 35.9754C159.255 36.0679 159.526 36.2581 160.043 36.5761C160.041 36.5753 160.04 36.5746 160.038 36.5738C160.491 36.8174 169.205 41.0479 172.055 42.4493C173.133 42.9655 173.402 43.0498 172.122 42.3169C171.363 41.8845 170.077 41.1749 168.083 40.1232C167.631 39.8859 168.167 40.3835 166.319 39.442C166.197 39.3798 166.212 39.1924 165.837 39.0015C164.97 38.5515 160.334 36.2448 159.317 35.9445C159.322 35.9114 159.274 35.8553 159.156 35.7703C158.096 34.9997 154.17 34.0779 154.807 34.4496ZM196.822 31.3817C196.334 31.5491 194.86 32.3548 194.778 32.5701C195.538 32.2682 197.977 30.98 196.822 31.3817ZM94.6668 86.5854C93.6327 86.9768 91.2076 88.4758 92.0282 88.1999C92.5138 88.044 95.8819 86.1253 94.6668 86.5854ZM181.899 39.2172C187.505 36.4316 183.21 38.4999 183.948 37.8493C183.246 38.3143 182.591 38.7552 181.899 39.2172ZM127.003 23.0637C127.964 23.4422 126.676 23.478 125.672 22.8901C125.357 22.7045 126.467 22.8534 127.003 23.0637ZM80.7502 12.2602C81.6438 12.723 77.1357 12.1459 78.9208 12.0061C79.0005 11.9995 80.6893 12.2367 80.7502 12.2602ZM113.486 19.1403C114.238 19.0791 114.691 19.1735 116.571 19.8074C113.736 19.0411 116.278 20.0414 113.486 19.1403ZM232.87 21.2178C232.882 21.2277 232.891 21.235 232.89 21.2451C232.878 21.2362 232.872 21.2273 232.87 21.2178ZM147.298 58.0732C146.497 58.2555 144.564 59.3445 145.253 59.2257C145.32 59.213 147.096 58.3777 147.298 58.0732ZM159.164 35.9754C159.084 35.8935 159.144 35.8921 159.317 35.9445C159.312 35.9757 159.258 35.9827 159.164 35.9754ZM157.626 52.1489C157.634 52.3391 160.627 50.7623 160.73 50.6828C162.275 49.4929 158.838 51.467 157.626 52.1489ZM73.6933 96.2629C73.5187 96.353 74.8336 96.2973 75.4386 95.854C75.914 95.5094 74.3328 95.9368 73.6933 96.2629ZM106.947 17.4423C105.882 17.1598 104.363 16.775 104.136 16.5037C104.853 16.7132 107.008 17.2978 106.947 17.4423ZM82.4939 12.7148C83.8797 12.6017 86.9753 12.9923 88.9205 13.351C88.913 13.6542 83.7861 12.7379 82.4939 12.7148ZM152.128 33.1492C152.209 33.1955 154.692 34.3845 154.433 34.0363C154.057 33.5207 151.462 32.7327 152.128 33.1492ZM78.8937 94.2908C79.9663 93.6427 77.1768 94.4049 76.0559 95.261C75.4913 95.7064 78.7241 94.4052 78.8937 94.2908ZM141.092 61.1649C139.767 62.0407 143.31 60.3365 143.678 59.8739C143.033 60.2104 141.563 60.8539 141.092 61.1649ZM188.046 35.2371C183.383 36.9508 186.324 36.7507 187.029 36.2599C187.124 36.1927 188.165 35.1917 188.046 35.2371ZM75.0046 16.17C75.7171 15.8883 72.8927 16.2915 72.6041 16.6055C72.4244 16.793 74.5431 16.3432 75.0046 16.17ZM255.014 20.8396C254.884 20.8217 254.754 20.8057 254.625 20.7914C254.723 20.793 254.85 20.8063 255.014 20.8396ZM128.082 67.3465C131.609 66.4572 130.939 66.0143 131.209 65.8699C131.794 65.559 133.255 65.038 134.324 64.4009C133.127 65.1799 131.931 65.9585 130.733 66.7371C131.756 66.2517 140.469 61.8263 140.575 61.5956C140.729 61.2676 138.072 62.8127 137.984 62.8398C137.858 62.8789 137.151 62.5933 136.891 62.7115C136.465 62.9071 129.304 66.8439 128.082 67.3465ZM178.98 40.1789C179.724 39.8577 180.031 39.9586 180.328 39.735C180.429 39.659 180.342 39.452 180.687 39.2007C180.128 39.521 179.559 39.8472 178.98 40.1789ZM122.961 71.1044C121.958 71.3432 125.92 69.2885 126.062 69.2445C126.817 69.0411 123.791 70.9045 122.961 71.1044ZM156.055 52.7899C155.899 52.8581 152.878 54.4307 152.97 54.5534C153.822 54.2136 157.834 52.0349 156.055 52.7899ZM181.148 38.936C182.227 38.3857 184.302 37.5357 183.921 37.3572C183.92 37.358 183.918 37.3588 183.917 37.3597C182.974 37.8936 182.09 38.3979 181.148 38.936ZM82.4691 91.8513C80.1613 92.3453 81.4302 92.5034 83.3453 91.7821C83.7881 91.3032 82.8587 91.7636 82.4691 91.8513ZM75.5298 94.5531C74.9632 94.7598 68.4307 97.3341 69.4872 97.2113C69.9215 97.2 73.6348 95.513 73.7639 95.4594C74.029 95.3812 72.9854 96.1521 74.9075 95.2922C74.7499 95.2441 75.7583 94.4919 75.5298 94.5531ZM80.5965 92.3517C78.3567 92.9379 78.1592 93.8443 79.7622 93.1184C80.3622 92.845 80.9224 92.2648 80.5965 92.3517ZM88.9568 88.3687C88.1949 88.6716 86.2396 89.5277 84.9837 90.4155C86.7998 89.5554 88.59 88.688 90.3696 87.8135C90.5016 87.5881 89.6431 88.0953 88.9519 88.3711C88.9535 88.3703 88.9551 88.3695 88.9568 88.3687ZM68.3708 13.987C70.1578 14.2063 66.042 14.276 65.8839 14.2265C65.3732 14.0526 67.5654 13.8879 68.3708 13.987ZM90.3369 20.146C90.831 20.1537 91.1997 20.3777 92.235 20.0701C91.1413 20.0289 90.0161 19.9982 88.922 19.9674C88.1638 20.5707 89.7822 20.1382 90.3369 20.146ZM94.6854 21.2311C94.5357 21.2654 95.4678 21.8612 93.4458 21.6706C92.0789 21.5311 99.2115 20.1794 100.558 20.3766C99.135 20.6904 95.9792 20.9434 94.6854 21.2311ZM107.476 22.9607C107.559 23.0037 104.936 23.2868 104.617 23.2852C102.969 23.2191 107.036 22.6511 107.476 22.9607ZM98.9447 23.6831C100.23 23.6596 97.4444 24.1104 96.6002 24.1515C96.4932 24.0274 98.7558 23.6837 98.9447 23.6831ZM85.5232 25.6503C86.78 26.3346 88.1474 25.4765 86.0514 25.3688C85.95 25.3635 85.4694 25.6179 85.5232 25.6503ZM104.957 23.8884C103.708 23.8604 106.454 23.5158 107.256 23.5581C107.346 23.6811 105.157 23.8844 104.957 23.8884ZM86.2839 26.9551C87.9801 27.5823 87.5596 26.3104 87.3432 26.2248C86.4611 25.8765 83.2719 25.908 82.6251 25.9613C87.3102 26.3819 85.4843 26.6784 86.2839 26.9551ZM94.5523 27.7682C96.2277 27.9966 92.0676 26.8568 91.2053 27.0455C92.0246 27.1831 94.0802 27.7009 94.5523 27.7682ZM104.4 30.5521C105.267 30.8241 107.844 31.6463 108.333 31.5934C107.368 31.3501 104.822 30.4615 104.4 30.5521ZM106.236 31.6347C107.535 32.2605 108.063 31.6364 106.425 31.4101C106.362 31.4014 106.189 31.6072 106.236 31.6347ZM113.826 34.1289C114.631 34.685 115.863 34.3139 114.421 33.8472C113.992 33.7104 113.742 34.0677 113.826 34.1289ZM88.2644 28.581C89.5137 28.9279 91.2619 28.7255 88.5357 28.1759C89.5102 28.266 90.4869 28.3678 91.465 28.4797C88.4103 27.6367 88.0934 28.1165 87.4151 28.1219C87.3055 28.1236 87.1867 28.1143 87.0465 28.0874C85.6237 27.8179 85.8257 27.2581 86.1405 27.1168C84.9024 27.2687 79.9143 26.6445 77.0028 26.5667C79.5526 26.8604 83.6204 27.573 86.0973 28.0689C86.5404 28.1545 86.9793 28.1677 87.4027 28.1967C87.6547 28.2134 87.8994 28.2357 88.1295 28.2821C89.0996 28.4807 88.1935 28.5599 88.2594 28.5801C88.2611 28.5804 88.2627 28.5807 88.2644 28.581ZM123.835 37.3802C126.322 38.5874 124.921 37.3381 123.406 36.9605C123.34 36.9485 123.773 37.3503 123.835 37.3802ZM108.545 25.8428C105.153 25.766 107.659 25.0639 100.267 26.5161C103.362 25.7092 100.407 26.1853 100.998 25.9394C101.477 25.7406 103.335 25.649 102.232 25.4932C103.706 25.5823 109.697 25.0649 109.743 25.2021C109.741 25.2021 109.739 25.2021 109.737 25.2021C109.857 25.234 109.583 25.898 108.545 25.8428ZM103.923 32.3834C104.571 33.4669 105.278 32.2113 106.804 33.3928C109.379 32.9995 100.484 31.66 99.6503 30.5827C109.027 33.057 93.65 28.1834 99.8925 31.1077C94.6101 29.3354 98.088 30.8433 97.2166 30.8082C96.288 30.7689 93.2812 29.9113 93.3722 30.2704C93.3739 30.2707 93.3756 30.2711 93.3772 30.2714C95.2374 30.6411 97.1046 31.0454 98.9726 31.4771C97.3112 30.3477 101.08 31.4782 102.224 32.3801C102.787 32.3784 103.357 32.3805 103.923 32.3834ZM93.5121 29.1957C93.6907 29.2371 97.7819 30.0559 97.5536 29.8669C97.0309 29.6264 91.2211 28.4982 93.5121 29.1957ZM75.6736 26.9237C77.1378 26.9931 79.3679 27.308 80.1822 27.1235C78.7329 26.9774 76.4871 26.6936 75.6736 26.9237ZM149.711 48.1446C151.57 48.7273 146.142 46.2626 147.616 47.1947C147.692 47.2391 149.617 48.112 149.711 48.1446ZM108.174 33.4219C109.981 34.2215 109.332 33.1432 107.872 32.9583C107.788 32.948 108.09 33.3852 108.174 33.4219ZM105.801 26.1263C105.724 26.3162 100.547 26.7189 99.6229 26.8621C100.129 26.574 105.957 25.8404 105.801 26.1263ZM73.065 27.6041C75.9563 28.4186 79.8611 27.8772 80.2998 27.9503C80.7233 28.0111 80.0247 28.2735 80.1213 28.2919C80.3398 28.3057 84.837 28.8212 85.0583 28.8548C85.2171 28.8599 84.4683 28.284 85.4197 28.2754C83.5633 28.1673 75.3254 27.3112 74.8629 27.4202C74.524 27.4509 77.0416 28.0273 73.0701 27.6042C73.0684 27.6042 73.0667 27.6041 73.065 27.6041ZM81.354 28.1595C80.2495 27.8431 83.4115 28.166 84.1695 28.3555C85.8425 28.7398 81.4962 28.1755 81.354 28.1595ZM88.9263 29.4383C89.2785 29.5351 92.5465 30.2121 92.8709 30.0686C91.3712 29.4596 88.118 29.1877 88.9263 29.4383ZM125.385 39.4755C126.237 39.7395 128.484 40.7149 128.68 40.5874C127.836 40.3098 125.578 39.341 125.385 39.4755ZM88.3188 30.1654C89.8035 30.0743 86.428 30.7099 85.4312 30.8129C85.3582 30.6959 88.1859 30.1716 88.3188 30.1654ZM107.996 35.2455C108.458 35.3969 117.658 38.0718 119.894 38.7594C120.024 38.7969 120.131 38.8269 120.211 38.8483C120.135 38.8149 120.032 38.773 119.906 38.7237C117.763 37.8472 108.687 35.0711 108.233 35.0452C108.091 35.0263 107.934 35.2184 107.996 35.2455ZM85.8661 30.2442C84.9019 30.3762 84.3484 29.9651 84.2318 29.9443C83.0989 29.7355 80.7207 29.5362 81.2699 29.3292C83.2708 29.6255 87.7978 29.9878 85.8661 30.2442ZM125.691 40.9124C129.157 42.0197 122.657 39.4346 123.427 40.0172C123.477 40.0516 125.333 40.7966 125.691 40.9124ZM106.828 34.9974C106.002 34.9394 95.7949 32.1123 94.1526 31.8316C95.7138 31.7504 96.8343 32.3271 98.8226 32.7898C99.3564 32.9143 99.2563 32.7129 99.3135 32.7266C100.244 32.9494 99.5029 32.9698 100.072 33.1151C100.43 33.173 107.997 34.9773 106.828 34.9974ZM85.3112 30.3543C84.7205 30.3756 78.4603 29.7442 78.209 29.7319C76.3444 29.22 84.8306 30.1333 85.3112 30.3543ZM107.668 35.6181C106.436 35.7526 101.442 34.0678 104.984 34.7815C105.32 34.8503 106.676 35.4431 107.668 35.6181ZM125.173 41.2163C125.343 41.2844 128.873 42.6443 128.984 42.5277C128.496 42.2741 123.307 40.3974 125.173 41.2163ZM123.151 41.0648C123.238 41.0911 122.496 40.5237 124.16 41.1359C124.299 41.1891 124.453 41.5861 126.593 42.2139C127.03 42.3422 127.758 42.3704 127.716 42.3411C125.713 41.0497 118.752 39.7536 123.151 41.0648ZM85.1562 30.6027C85.4726 30.7916 84.6004 31.0792 83.8999 30.772C83.5999 30.6404 84.2173 30.4686 85.1562 30.6027ZM136.363 45.5091C134.235 44.9342 140.612 47.5221 140.953 47.6147C140.816 47.3787 136.578 45.558 136.363 45.5091ZM85.2387 32.6724C85.2402 32.6721 85.2417 32.6719 85.2432 32.6716C83.6314 32.9117 84.5833 32.5232 84.5076 32.5294C80.9728 32.9314 81.9726 33.2459 81.4438 33.4139C80.285 33.8191 80.3429 33.1989 78.3727 33.9705C81.6328 32.7501 78.6229 33.6864 78.4729 33.5183C77.8866 32.788 83.0471 32.7446 84.5777 32.3251C84.8006 32.2542 83.0812 32.323 83.6444 32.133C84.0206 32.0056 84.5714 31.9118 85.1448 31.8625C87.7169 31.6136 90.8371 31.8703 85.2872 32.6655C85.2711 32.6678 85.255 32.6701 85.2387 32.6724ZM83.3306 30.7329C82.501 30.8203 76.455 30.0511 78.078 29.9927C78.3412 29.9299 84.5601 30.5011 83.3306 30.7329ZM231.908 2.73544C233.607 2.38046 229.609 2.46211 228.885 2.71778C228.527 2.83415 231.168 2.88364 231.908 2.73544ZM203.576 7.3155C201.507 8.09375 199.758 9.7603 202.191 8.66657C202.444 8.54917 203.849 7.34628 203.576 7.3155ZM286.825 79.9945C288.918 78.2663 288.355 77.9692 287.02 79.4168C286.539 79.9164 286.76 80.0443 286.825 79.9945ZM257.214 2.27189C257.01 2.21986 255.225 2.03963 254.292 2.07398C254.035 2.08591 253.867 2.10886 253.889 2.14728C253.996 2.16157 254.132 2.17472 254.287 2.18657C255.853 2.25578 258.809 2.62893 257.214 2.27189ZM286.289 80.6425C287.322 79.4703 285.133 81.0791 284.03 82.5394C284.705 81.9334 286.18 80.775 286.289 80.6425ZM111.132 37.9942C112.119 38.0358 114.696 38.9071 116.197 39.3463C116.264 39.6914 112.214 38.2517 111.132 37.9942ZM212.635 5.11004C210.767 5.76086 214.911 5.01132 214.474 4.81847C214.419 4.81101 212.707 5.08091 212.635 5.11004ZM216.644 88.0784C217.438 88.3291 216.382 87.6839 215.598 87.2837C215.071 87.015 214.666 86.8589 215.055 87.1957C215.072 87.2093 215.267 87.3219 215.513 87.461C215.967 87.7178 216.597 88.0637 216.644 88.0784ZM199.942 79.1514C200.784 79.7003 204.594 81.7858 203.204 80.8086C202.981 80.6558 200.088 79.0386 199.942 79.1514ZM81.3984 33.6567C81.9431 33.8514 79.2054 34.4477 78.7927 34.5116C78.6301 34.5262 80.6912 33.3852 81.3984 33.6567ZM295.542 62.3055C295.564 61.855 295.594 61.2164 295.592 60.4991C295.588 59.3165 295.599 57.7306 295.472 57.3711C295.494 58.1221 295.421 59.5331 295.424 60.4992C295.425 61.7077 295.379 62.5336 295.542 62.3055ZM221.417 3.42656C219.679 3.33523 216.803 3.90822 217.6 4.2262C220.762 3.62986 217.135 3.86238 221.417 3.42656ZM280.158 86.1622C280.973 85.6177 281.319 84.805 281.216 84.8568C280.245 85.3403 279.271 86.5758 280.158 86.1622ZM281.454 15.6464C281.572 15.4668 279.229 13.2335 279.442 13.6307C279.535 13.753 281.388 15.7777 281.454 15.6464ZM142.772 49.4783C143.788 50.0927 140.415 48.8514 139.508 48.2712C139.141 47.8045 142.645 49.3966 142.772 49.4783ZM254.706 98.0511C254.501 98.4981 260.848 97.0514 258.281 97.3585C257.616 97.4918 254.758 97.9812 254.706 98.0511ZM211.065 85.9542C213.765 87.0164 203.167 81.1191 205.785 82.9782C205.941 83.1097 210.817 85.8752 211.065 85.9542ZM194.061 76.371C194.464 76.6419 193.791 77.3371 192.234 76.0376C192.03 75.8675 193.218 76.2581 193.06 76.1029C192.961 76.0101 189.27 73.7597 189.086 73.6803C188.887 73.5959 188.958 73.9816 188.753 73.9034C188.522 73.8156 186.346 72.2757 185.142 71.5906C182.874 70.3007 182.509 70.3839 182.322 70.2791C181.779 69.9749 180.958 69.3086 179.861 68.6948C174.993 65.96 167.805 62.2356 163.354 59.6401C162.737 59.2789 162.179 58.9395 161.68 58.6197C162.251 58.9402 162.82 59.2507 163.396 59.5582C166.616 61.2799 169.872 62.8131 173.196 64.5548C171.813 64.3867 179.087 67.3314 174.801 65.6605C176.689 66.4927 192.707 75.4654 194.056 76.3683C194.057 76.3692 194.059 76.3701 194.061 76.371ZM195.695 10.2173C196.694 9.40064 190.883 12.1472 190.599 12.7238C191.353 12.4015 195.533 10.3128 195.695 10.2173ZM225.396 1.45172C225.991 1.32692 226.494 0.608081 229.705 0.607156C229.708 0.606877 229.711 0.6066 229.714 0.606321C230.649 0.610536 229.608 0.862108 229.783 0.900146C229.847 0.911882 232.759 0.967031 230.368 1.22975C226.728 1.66437 229.98 0.79484 228.029 0.989829C227.789 1.00303 224.136 1.79308 224.365 1.84751C224.387 1.85226 225.489 1.63676 225.675 1.64582C226.38 1.6757 226.067 1.91119 226.166 1.90838C226.485 1.86517 232.273 0.953125 233.141 1.21062C233.42 1.2163 223.913 2.41391 223.537 2.49727C223.297 2.50007 223.321 1.94959 223.07 1.93166C222.939 1.91067 219.127 2.71775 218.622 2.77173C218.475 2.78312 218.361 2.78763 218.278 2.78961C218.887 2.84233 215.414 3.48423 215.485 3.28785C215.529 3.19765 217.929 2.78136 218.019 2.78376C218.057 2.78234 218.091 2.78389 218.123 2.78352C217.583 2.61958 225.715 1.38466 223.92 1.35957C226.259 0.881244 223.642 1.84246 225.396 1.45172ZM236.7 0.122722C236.46 0.19205 236.22 0.261945 235.979 0.332417C240.097 -0.0402727 244.84 0.148042 249.52 0.248561C250.706 0.275756 249.352 -0.106377 250.903 0.0291891C252.151 0.139616 253.507 0.518197 252.832 0.564086C252.667 0.573111 250.145 0.27954 248.871 0.283227C245.112 0.295912 246.057 0.622144 245.839 0.624058C245.597 0.629277 243.226 0.426957 241.925 0.46718C238.653 0.573249 237.175 0.7932 232.671 0.878807C235.247 0.496843 233.802 0.158453 236.7 0.122722ZM232.973 95.8292C232.754 95.9659 230.122 94.9098 229.183 94.5869C229.393 94.4701 231.962 95.5471 232.973 95.8292ZM28.6061 78.6374C27.9123 78.8261 32.1923 79.8343 31.1105 79.3355C30.8507 79.2393 29.0774 78.7822 28.6061 78.6374ZM51.1269 80.4447C51.8742 80.3474 48.8499 80.1746 48.8717 80.4099C48.868 80.4883 51.0131 80.4594 51.1269 80.4447ZM289.808 24.1282C289.937 24.28 291.256 26.7883 291.266 26.8895C291.946 28.6345 287.401 20.5466 289.808 24.1282ZM76.1294 73.0089C73.8968 74.326 80.9503 70.9655 78.6857 71.7904C78.5647 71.839 76.2318 72.9511 76.1294 73.0089ZM85.888 68.0432C85.3322 68.3439 82.7818 69.535 82.8041 69.6276C82.811 69.7967 85.7233 68.4234 85.888 68.0432ZM280.286 87.4963C280.781 87.6033 276.959 89.8389 275.735 90.5942C275.25 90.4973 279.021 88.4678 280.286 87.4963ZM297.439 58.5797C297.45 59.2634 297.46 59.901 297.468 60.4975C296.933 72.3301 292.578 75.2619 293.158 74.9197C293.045 74.5121 296.922 70.1689 297.218 60.4977C297.229 59.6158 297.247 58.6578 297.269 57.6171C297.491 57.5958 297.421 57.5637 297.439 58.5797ZM283.798 85.1582C284.23 84.5398 286.05 83.1123 287.257 81.9592C287.153 82.3111 284.639 84.4772 283.798 85.1582ZM25.1013 76.8015C25.3324 76.7723 25.8522 77.0613 26.4282 77.3604C26.9795 77.654 27.5224 77.9471 27.2629 77.9231C27.1989 77.9158 26.4605 77.6563 25.9067 77.3758C25.3469 77.0981 24.9996 76.8314 25.1013 76.8015ZM290.961 25.528C291.092 24.8752 293.795 30.7891 293.788 31.3062C294.294 33.2378 291.44 25.886 290.961 25.528ZM254.633 99.6394C253.336 100.068 249.832 100.002 247.789 99.8039C248.711 99.6831 252.597 99.8858 254.633 99.6394ZM269.622 94.5152C269.534 94.5774 267.554 95.6139 267.463 95.6463C265.729 96.2848 271.333 93.3446 269.622 94.5152ZM88.2027 34.7375C88.1418 34.7558 86.5742 35.0106 86.5227 35.0102C85.092 35.0003 89.7629 34.2442 88.2027 34.7375Z" fill="white"/>
</svg>
